<svg id="Calque_1" data-name="Calque 1" xmlns="http://www.w3.org/2000/svg" viewBox="0 0 159 47"><defs><style>.cls-1{fill:orange;}.cls-2{fill:#fff;}</style></defs><rect class="cls-1" width="159" height="47"/><path class="cls-2" d="M64.21,31.2a30.82,30.82,0,0,1-1.31,8.86L33.78,10.2l-8.73,8.51V14.3H10.78l.06,19.53c-1.9,2-3.81,4-5.72,5.93a16.94,16.94,0,0,1-.84-2,18.89,18.89,0,0,1-.68-2.62,34.17,34.17,0,0,1-.25-3.93,30.43,30.43,0,0,1,60.86,0Z"/><path d="M66.38,46.57l0,0H54.06L33.78,26.32,21.86,38.24,13.5,46.6H1.19l0,0,12-12V16.27l9.72,0c.07,2.73.13,5.46.2,8.18l4.55-4.27L33.78,14,40,20.14Z"/><path class="cls-2" d="M76.8,26c0,4.1-1.8,6.9-4.48,6.9S68,30,68,26.22c0-4,1.81-6.94,4.42-6.94S76.8,22.14,76.8,26Zm-6.71.14c0,2.44.89,4.35,2.33,4.35s2.32-1.88,2.32-4.4-.86-4.39-2.32-4.39S70.09,23.66,70.09,26.13Z"/><path class="cls-2" d="M78.72,19.69a12.29,12.29,0,0,1,2.8-.29,4.48,4.48,0,0,1,3.72,1.49,7.08,7.08,0,0,1,1.49,4.83A8.59,8.59,0,0,1,85.3,31a5.06,5.06,0,0,1-4.21,1.85,11.24,11.24,0,0,1-2.37-.21Zm1.94,10.66a3.54,3.54,0,0,0,.77.06c2,0,3.23-1.55,3.23-4.53,0-2.75-1.18-4.11-3-4.11a3.42,3.42,0,0,0-1,.13Z"/><path class="cls-2" d="M90.6,19.51V32.66H88.66V19.51Z"/><path class="cls-2" d="M97.37,22.05H94.9V19.51h6.92v2.54H99.31V32.66H97.37Z"/><path class="cls-2" d="M103.47,19.69a11.57,11.57,0,0,1,2.71-.29A3.35,3.35,0,0,1,109,20.46a4.36,4.36,0,0,1,.79,2.76,3.61,3.61,0,0,1-1.51,3.22v.07a3.6,3.6,0,0,1,1.13,2.39c.29,1.5.54,3.24.71,3.76h-2a24.39,24.39,0,0,1-.61-3c-.26-1.64-.63-2.07-1.47-2.09h-.66v5.13h-1.92Zm1.92,5.63h.87c1,0,1.6-.71,1.6-1.85s-.59-1.78-1.49-1.78a3.33,3.33,0,0,0-1,.1Z"/><path class="cls-2" d="M114,29.16l-.65,3.5h-2l2.74-13.15h2.6l2.88,13.15H117.4l-.72-3.5Zm2.34-2.29-.59-2.81c-.16-.77-.32-1.64-.46-2.38h0c-.13.74-.25,1.62-.4,2.38l-.55,2.81Z"/><path class="cls-2" d="M122.76,32.66l-2.9-13.15H122L123.11,25c.33,1.62.61,3.07.85,4.74h0c.24-1.59.55-3.15.87-4.66l1.2-5.61h2l-3,13.15Z"/><path class="cls-2" d="M131.07,29.16l-.65,3.5h-2l2.74-13.15h2.6l2.88,13.15h-2.15l-.72-3.5Zm2.34-2.29-.59-2.81c-.16-.77-.32-1.64-.46-2.38h0c-.13.74-.25,1.62-.4,2.38l-.55,2.81Z"/><path class="cls-2" d="M140.11,19.51v7.24c0,2.38.6,3.73,1.72,3.73s1.75-1.29,1.75-3.73V19.51h1.94v7.14c0,4.28-1.44,6.24-3.78,6.24-2.19,0-3.58-1.82-3.58-6.29V19.51Z"/><path class="cls-2" d="M152.69,32.66l-.82-2.36c-.34-1-.56-1.65-.82-2.38h0c-.19.73-.41,1.39-.72,2.35l-.76,2.39h-2.29L149.91,26l-2.56-6.52h2.29l.8,2.39c.27.83.47,1.47.69,2.21h0c.22-.85.39-1.42.63-2.19l.78-2.41h2.3l-2.58,6.38L155,32.66Z"/></svg>